<?xml version="1.0" encoding="UTF-8"?>
<svg version="1.1" xmlns="http://www.w3.org/2000/svg" width="512" height="512">
<path d="M0 0 C11.33563465 9.62365464 13.66062838 18.90450472 16.3515625 33.01171875 C16.57972656 34.13449219 16.80789063 35.25726563 17.04296875 36.4140625 C17.94372341 41.00602156 18.60582508 45.3078611 18.3515625 50.01171875 C18.96902344 49.67398438 19.58648437 49.33625 20.22265625 48.98828125 C36.06187221 40.64677634 50.81351781 43.66011563 67.79833984 46.89160156 C69.39678833 47.18971316 70.99536415 47.48714266 72.59405518 47.78395081 C76.89769879 48.5849892 81.19948038 49.39563307 85.50094938 50.20825672 C90.03971876 51.06410573 94.5800938 51.91135537 99.12026978 52.75970459 C106.75190151 54.18696183 114.38242163 55.62003589 122.01220703 57.05712891 C131.73165684 58.8877889 141.45284414 60.70903858 151.17464256 62.52717972 C159.61240731 64.10525221 168.04937138 65.68759012 176.48620272 67.27064419 C179.15720814 67.77166171 181.82831332 68.27214471 184.49943161 68.77256012 C194.08404269 70.56924709 203.66534197 72.38193256 213.24132538 74.22407532 C215.88299633 74.7318351 218.52574654 75.23171124 221.16980743 75.72709656 C224.5077382 76.35358482 227.84131598 76.99923907 231.17431641 77.65136719 C232.55944459 77.90470007 232.55944459 77.90470007 233.97255516 78.16315079 C245.14619344 80.40869477 252.55220971 85.94591503 259.3515625 95.01171875 C269.68944292 110.70998161 262.05451988 136.00127667 258.74840117 152.91624665 C258.06068166 156.45968609 257.39708136 160.00765757 256.7303772 163.55509949 C255.56988441 169.71309373 254.39526346 175.86824961 253.21075439 182.02166748 C251.48281722 190.99925749 249.77791325 199.98110475 248.07928681 208.96428156 C247.27585365 213.21312039 246.47160333 217.46180442 245.66714478 221.71044922 C245.50524229 222.56552732 245.34333981 223.42060542 245.1765312 224.30159497 C244.00726829 230.47435164 242.83376289 236.64629333 241.65829468 242.81787109 C236.58045844 269.48107128 231.56283489 296.15517646 226.578125 322.8359375 C226.39744823 323.80288693 226.21677145 324.76983636 226.03061962 325.76608729 C224.40562039 334.46280719 222.78105237 343.15960757 221.15723038 351.85654736 C217.73995802 370.15858568 214.31495549 388.45917368 210.88828659 406.75945473 C210.27867099 410.01515537 209.66912886 413.27086975 209.05968094 416.52660179 C208.9159841 417.29418672 208.77228727 418.06177165 208.62423599 418.85261673 C208.33956237 420.37355713 208.05499098 421.89451666 207.7705251 423.41549593 C207.08815857 427.06317208 206.40402827 430.71049708 205.71567726 434.35704899 C204.50331798 440.78881724 203.30625507 447.22190965 202.17482388 453.66847932 C201.66338588 456.57663607 201.14202204 459.48297643 200.61995006 462.3892405 C200.2661127 464.38280418 199.92678877 466.37892731 199.58809853 468.37512016 C197.28655115 481.14091525 193.96588421 492.49609058 183.0390625 500.19921875 C168.51891945 509.22397324 152.62789303 506.36586708 136.58007812 503.24536133 C134.98293156 502.94674465 133.3855309 502.64948439 131.78790283 502.35345459 C127.49956327 501.5549208 123.21499971 500.73764056 118.93092537 499.91657472 C114.40438246 499.05241116 109.87455541 498.20580204 105.34509277 497.35710144 C97.73465349 495.92867021 90.12636142 494.48927113 82.51953125 493.04174805 C71.877293 491.01661054 61.23157151 489.01031367 50.58495045 487.00836337 C12.58176696 479.85999821 12.58176696 479.85999821 -6.33955431 476.21258014 C-10.94883147 475.32741909 -15.56403976 474.48356096 -20.18481445 473.66000366 C-22.40512131 473.25085114 -24.62541833 472.84164528 -26.84570312 472.43237305 C-27.79999962 472.27199712 -28.75429611 472.11162119 -29.73751068 471.94638538 C-40.39103269 469.9388696 -49.45896441 465.06045929 -55.6484375 456.01171875 C-57.15502335 453.38416128 -58.41099634 450.78358695 -59.6484375 448.01171875 C-67.87173461 448.56064854 -75.90881398 449.8275333 -84.00744247 451.30923462 C-86.19537916 451.7092288 -88.3843886 452.10281767 -90.57376099 452.49487305 C-96.79048295 453.609381 -103.00499672 454.7360135 -109.21923828 455.86425781 C-113.04352116 456.55813872 -116.86891585 457.24561282 -120.69498062 457.92959595 C-122.82761496 458.31289397 -124.95881011 458.7035584 -127.09005737 459.09448242 C-155.65431525 464.25522339 -155.65431525 464.25522339 -168.4609375 456.32421875 C-182.95762654 445.6355368 -184.71615507 430.85024785 -187.64135742 414.16625977 C-188.02813094 412.00617961 -188.41578629 409.8462572 -188.80424023 407.68647861 C-189.87258132 401.7287946 -190.92675162 395.76868052 -191.9779315 389.80794764 C-192.88642444 384.66429917 -193.80203392 379.52192657 -194.71738809 374.37949544 C-197.66992257 357.79148998 -200.59621583 341.19888694 -203.51748847 324.60535201 C-204.92913372 316.58706744 -206.3426847 308.56911911 -207.75623956 300.55117101 C-210.28044373 286.23302068 -212.80294478 271.91457085 -215.32446289 257.59594727 C-217.75632367 243.78645418 -220.18957177 229.97720643 -222.62426758 216.16821289 C-225.29986524 200.99287062 -227.97476024 185.81740482 -230.64840287 170.64171797 C-230.79020219 169.83686084 -230.93200151 169.0320037 -231.07809779 168.20275696 C-231.36263888 166.58769314 -231.6471786 164.97262907 -231.93171692 163.35756476 C-232.91091908 157.79975874 -233.8905824 152.24203413 -234.87041664 146.68433952 C-236.06480276 139.90955666 -237.25834432 133.13462559 -238.45087991 126.35951673 C-239.05644685 122.91922876 -239.662335 119.47899834 -240.26921844 116.03894234 C-241.54222502 108.82078386 -242.80871921 101.6015604 -244.06250024 94.38003612 C-244.45749851 92.10935011 -244.85467052 89.83904129 -245.25387549 87.56909108 C-245.8313304 84.27968604 -246.39990743 80.98886213 -246.9662323 77.69752502 C-247.1375405 76.73114512 -247.30884869 75.76476522 -247.48534805 74.76910108 C-249.3694482 63.68436087 -248.97796142 53.68508248 -243.29296875 43.609375 C-241.85325635 41.59840943 -240.35088113 39.8044124 -238.6484375 38.01171875 C-237.86146484 37.18220703 -237.86146484 37.18220703 -237.05859375 36.3359375 C-228.61249715 28.3270506 -217.13196187 26.897312 -206.09375 25.0078125 C-204.51978625 24.72995935 -202.94599456 24.45113003 -201.37236023 24.17141724 C-197.07622983 23.4106444 -192.77785985 22.66332442 -188.47888565 21.9188118 C-183.90493626 21.12489718 -179.33280482 20.32064507 -174.76049805 19.51733398 C-168.85096163 18.47970517 -162.94118462 17.44351347 -157.03050232 16.41242981 C-142.13069496 13.81137525 -127.24247728 11.14908869 -112.35720825 8.46619225 C-105.01140016 7.14406276 -97.66399923 5.8308174 -90.31650925 4.51807117 C-84.31026537 3.44445178 -78.30496141 2.36607253 -72.30157471 1.27658081 C-66.59999681 0.24224003 -60.89601482 -0.77770309 -55.1900425 -1.78750992 C-53.08888792 -2.16188266 -50.98861841 -2.54126573 -48.8893795 -2.9262352 C-12.72023721 -9.54955861 -12.72023721 -9.54955861 0 0 Z " fill="#F4EEC9" transform="translate(248.6484375,5.98828125)"/>
<path d="M0 0 C1.59844848 0.2981116 3.1970243 0.5955411 4.79571533 0.89234924 C9.09935895 1.69338763 13.40114054 2.5040315 17.70260954 3.31665516 C22.24137892 4.17250417 26.78175395 5.0197538 31.32192993 5.86810303 C38.95356166 7.29536027 46.58408179 8.72843433 54.21386719 10.16552734 C63.933317 11.99618734 73.6545043 13.81743702 83.37630272 15.63557816 C91.81406746 17.21365064 100.25103154 18.79598856 108.68786287 20.37904263 C111.3588683 20.88006015 114.02997348 21.38054314 116.70109177 21.88095856 C126.28570284 23.67764553 135.86700213 25.490331 145.44298553 27.33247375 C148.08465649 27.84023354 150.72740669 28.34010968 153.37146759 28.835495 C156.70939835 29.46198326 160.04297614 30.10763751 163.37597656 30.75976562 C164.29939535 30.92865421 165.22281414 31.0975428 166.17421532 31.27154922 C177.34785359 33.51709321 184.75386987 39.05431347 191.55322266 48.12011719 C201.89110308 63.81838005 194.25618004 89.1096751 190.95006132 106.02464509 C190.26234182 109.56808453 189.59874152 113.11605601 188.93203735 116.66349792 C187.77154456 122.82149216 186.59692362 128.97664805 185.41241455 135.13006592 C183.68447738 144.10765593 181.97957341 153.08950318 180.28094697 162.07268 C179.47751381 166.32151883 178.67326349 170.57020286 177.86880493 174.81884766 C177.70690245 175.67392576 177.54499997 176.52900385 177.37819135 177.40999341 C176.20892844 183.58275008 175.03542304 189.75469176 173.85995483 195.92626953 C168.7821186 222.58946972 163.76449504 249.2635749 158.77978516 275.94433594 C158.59910838 276.91128537 158.41843161 277.8782348 158.23227978 278.87448573 C156.60728054 287.57120563 154.98271253 296.26800601 153.35889053 304.96494579 C149.94161817 323.26698412 146.51661565 341.56757212 143.08994675 359.86785316 C142.48033115 363.12355381 141.87078902 366.37926819 141.26134109 369.63500023 C141.11764426 370.40258516 140.97394743 371.17017009 140.82589614 371.96101516 C140.54122253 373.48195556 140.25665114 375.0029151 139.97218525 376.52389437 C139.28981872 380.17157052 138.60568842 383.81889552 137.91733742 387.46544743 C136.70497813 393.89721568 135.50791523 400.33030809 134.37648404 406.77687776 C133.86504604 409.6850345 133.3436822 412.59137487 132.82161021 415.49763894 C132.46777286 417.49120261 132.12844893 419.48732575 131.78975868 421.4835186 C129.4882113 434.24931369 126.16754436 445.60448902 115.24072266 453.30761719 C100.7205796 462.33237168 84.82955319 459.47426551 68.78173828 456.35375977 C67.18459172 456.05514308 65.58719105 455.75788283 63.98956299 455.46185303 C59.70122342 454.66331924 55.41665987 453.846039 51.13258553 453.02497315 C46.60604262 452.1608096 42.07621556 451.31420047 37.54675293 450.46549988 C29.93631364 449.03706865 22.32802157 447.59766957 14.72119141 446.15014648 C4.07895316 444.12500898 -6.56676833 442.1187121 -17.2133894 440.1167618 C-55.21657289 432.96839665 -55.21657289 432.96839665 -74.13789415 429.32097858 C-78.74717132 428.43581753 -83.36237961 427.5919594 -87.9831543 426.7684021 C-90.20346115 426.35924958 -92.42375818 425.95004372 -94.64404297 425.54077148 C-95.59833946 425.38039556 -96.55263596 425.22001963 -97.53585052 425.05478382 C-108.20229639 423.0448327 -117.23791887 418.16345453 -123.44677734 409.12011719 C-127.44677734 402.35821243 -127.44677734 402.35821243 -127.44677734 399.12011719 C-106.04577104 394.55097059 -106.04577104 394.55097059 -95.44677734 394.12011719 C-95.36427734 393.04761719 -95.28177734 391.97511719 -95.19677734 390.87011719 C-94.44677734 387.12011719 -94.44677734 387.12011719 -92.88427734 384.68261719 C-89.46752884 382.49239379 -86.34422529 382.58010934 -82.44677734 383.12011719 C-80.76100023 383.73686491 -79.09229696 384.40283941 -77.44677734 385.12011719 C-64.69960813 387.83228085 -51.71092267 385.739345 -39.06982422 383.51391602 C-36.45418972 383.05890663 -33.83433481 382.64060244 -31.21240234 382.22363281 C-19.22952306 380.21230623 -5.20481733 377.38319169 2.44775391 366.95214844 C13.29117228 348.9819604 8.1725141 328.82576866 4.18603516 309.33154297 C3.2440242 304.55098274 2.476412 299.74862762 1.74072266 294.93261719 C1.55546021 293.72968018 1.55546021 293.72968018 1.36645508 292.50244141 C1.09207956 290.70883475 0.82206154 288.91456207 0.55322266 287.12011719 C1.52001953 286.63542969 2.48681641 286.15074219 3.48291016 285.65136719 C23.86355573 275.24065637 36.44031459 261.69073657 43.60791016 239.76074219 C48.36224666 221.45065283 45.93756935 203.01535779 36.98291016 186.41308594 C28.66480716 173.07230326 17.80521851 164.32472274 3.55322266 158.12011719 C2.43367188 157.61158203 2.43367188 157.61158203 1.29150391 157.09277344 C-3.88724424 155.04772751 -9.25123321 154.61908388 -14.74365234 154.04589844 C-15.99927979 153.910849 -15.99927979 153.910849 -17.28027344 153.77307129 C-19.33545853 153.55245406 -21.39107728 153.33588317 -23.44677734 153.12011719 C-23.56317566 152.44012161 -23.67957397 151.76012604 -23.79949951 151.05952454 C-24.91473305 144.54647795 -26.03189259 138.03376472 -27.15104294 131.52138996 C-27.72588737 128.17597114 -28.3000703 124.83044203 -28.87255859 121.48461914 C-29.5360953 117.60889541 -30.20163723 113.73352501 -30.86865234 109.85839844 C-31.08614136 108.59464386 -31.30363037 107.33088928 -31.52770996 106.02883911 C-33.00771024 97.49207713 -34.57373935 88.9757707 -36.29168701 80.48347473 C-37.05378163 76.63413613 -37.65916468 73.06863604 -37.44677734 69.12011719 C-38.06552734 68.85199219 -38.68427734 68.58386719 -39.32177734 68.30761719 C-41.44677734 67.12011719 -41.44677734 67.12011719 -43.44677734 64.12011719 C-43.59448242 62.05249023 -43.59448242 62.05249023 -43.46630859 59.63183594 C-43.41796875 58.25209595 -43.41796875 58.25209595 -43.36865234 56.84448242 C-43.33255859 55.84231689 -43.29646484 54.84015137 -43.25927734 53.80761719 C-42.96759053 39.94498687 -45.32991727 26.83176303 -47.98779297 13.2878418 C-48.49002102 9.82166681 -48.67229352 6.61693522 -48.44677734 3.12011719 C-36.34147568 -8.98518447 -14.76213848 -2.80860422 0 0 Z " fill="#F8E9AF" transform="translate(316.44677734375,52.8798828125)"/>
<path d="M0 0 C5.66816731 1.07499725 8.59120503 3.92393154 11.953125 8.4921875 C15.99971311 15.81594204 15.14719906 24.58913431 14.625 32.6875 C14.295 33.6775 13.965 34.6675 13.625 35.6875 C13.40048542 37.91324335 13.21717122 40.14331519 13.0625 42.375 C12.918125 44.458125 12.77375 46.54125 12.625 48.6875 C17.245 48.6875 21.865 48.6875 26.625 48.6875 C26.955 46.7075 27.285 44.7275 27.625 42.6875 C29.04296875 40.16015625 29.04296875 40.16015625 30.8125 37.75 C31.43898438 36.89277344 32.06546875 36.03554687 32.7109375 35.15234375 C34.82968433 32.42391671 37.02868422 29.80348269 39.36328125 27.2578125 C42.34147305 23.55120846 42.80095348 20.96711863 42.5 16.25 C42.41632597 12.33300937 42.430537 11.011605 44.5 7.5625 C47.0146124 5.34372435 48.10708665 4.75655511 51.4375 4.3125 C55.70550978 4.8146188 56.94844351 6.41615318 59.625 9.6875 C62.71183592 14.8897899 62.43942272 20.4932073 60.97265625 26.24609375 C58.34186289 33.48359824 53.92943714 38.95525626 48.875 44.6640625 C48.33875 45.26992187 47.8025 45.87578125 47.25 46.5 C46.76789063 47.02207031 46.28578125 47.54414063 45.7890625 48.08203125 C44.30178384 49.92319187 44.30178384 49.92319187 43.625 53.6875 C46.595 55.6675 49.565 57.6475 52.625 59.6875 C54.99689353 58.50155324 57.36547081 57.30887135 59.7265625 56.1015625 C65.94272258 52.94524175 72.05646223 49.95393699 78.63671875 47.609375 C82.10900468 45.99943496 83.42060456 44.1140644 85.0625 40.6875 C86.6734337 37.59450729 87.55135633 36.26823103 90.625 34.6875 C94.76510252 33.96748217 96.35304204 34.52633973 100 36.6875 C102.625 39.6875 102.625 39.6875 103.375 43.375 C102.86574807 49.49759713 99.4666468 55.09293449 94.98803711 59.18212891 C89.04414126 63.96402057 82.55262832 66.27186648 75.43164062 68.78515625 C74.56861328 69.10613281 73.70558594 69.42710937 72.81640625 69.7578125 C72.03467041 70.03383301 71.25293457 70.30985352 70.44750977 70.59423828 C68.44868586 71.54451577 68.44868586 71.54451577 67.81445312 73.69238281 C67.57401874 76.22437994 68.18423163 77.20565206 69.5625 79.3125 C71.625 82.6875 71.625 82.6875 71.625 84.6875 C72.615 84.3575 73.605 84.0275 74.625 83.6875 C80.37585984 83.34921413 86.23520912 83.07602866 91.8125 84.6875 C96.48915961 85.91416482 100.82059097 86.39771699 105.625 85.6875 C108.26124434 83.79520734 108.26124434 83.79520734 110.625 81.6875 C114.61206681 80.36668157 117.71406344 80.24172253 121.5625 82.125 C123.77490697 84.87374806 124.72308997 87.04505491 124.94140625 90.59765625 C124.31656419 94.7246995 121.81848263 97.18106144 118.625 99.6875 C115.70932699 101.29648343 112.74191277 102.52800845 109.625 103.6875 C108.635 104.1825 108.635 104.1825 107.625 104.6875 C99.92189366 105.12218973 93.01737427 104.81750615 85.625 102.6875 C82.63273599 102.25868736 79.63587211 101.95234523 76.625 101.6875 C76.27724085 106.56950344 76.27958849 110.95737213 77.625 115.6875 C80.46620129 117.98985277 83.13822798 119.08204136 86.54296875 120.390625 C90.31635332 121.97841166 92.3928491 124.01820495 95.02734375 127.07421875 C99.06882171 131.15522217 102.48147269 131.99657094 108.125 132.0625 C112.42498225 132.31572659 114.25056608 132.44729711 117.9375 134.8125 C120.10660037 138.50800433 120.37834938 140.46874348 119.625 144.6875 C117.08362841 147.84704305 115.47877341 149.40290886 111.625 150.6875 C100.70634358 151.61827071 93.19607905 149.45923908 84.7578125 142.53515625 C83.38704511 141.34765996 82.02665048 140.14802423 80.6796875 138.93359375 C80.08414063 138.39863281 79.48859375 137.86367188 78.875 137.3125 C78.36453125 136.83039063 77.8540625 136.34828125 77.328125 135.8515625 C75.26053168 134.27538608 75.26053168 134.27538608 70.625 133.6875 C68.645 136.9875 66.665 140.2875 64.625 143.6875 C65.470625 144.63625 66.31625 145.585 67.1875 146.5625 C72.89503632 154.07742282 75.66632906 163.81148719 78.625 172.6875 C80.26534193 173.41654086 81.93801918 174.07405243 83.625 174.6875 C87.00869529 176.49738353 88.46133723 177.44200585 90.625 180.6875 C90.48929777 184.41931137 90.09128857 186.92978107 88.125 190.125 C84.28330078 192.52606201 81.02731312 192.47892708 76.625 191.6875 C69.34324644 189.15894451 64.32298582 184.36515785 60.625 177.6875 C59.1224533 174.06288148 57.84672872 170.36856422 56.6652832 166.62792969 C55.44943939 162.79337888 54.35929768 159.75152182 51.625 156.6875 C47.83274749 158.1374789 44.24689716 159.85648551 40.625 161.6875 C40.63660156 162.87988281 40.64820313 164.07226562 40.66015625 165.30078125 C40.66953592 166.86718594 40.67863593 168.43359231 40.6875 170 C40.69587891 170.78568359 40.70425781 171.57136719 40.71289062 172.38085938 C40.71611328 173.13818359 40.71933594 173.89550781 40.72265625 174.67578125 C40.72789307 175.37227783 40.73312988 176.06877441 40.73852539 176.78637695 C40.625 178.6875 40.625 178.6875 39.625 181.6875 C39.45290194 184.14201334 39.35841562 186.60238918 39.3125 189.0625 C39.27511719 190.36960937 39.23773438 191.67671875 39.19921875 193.0234375 C39.68776561 197.22762979 40.85331779 198.60427211 43.625 201.6875 C44.33753588 206.12105658 44.15827109 207.9279927 41.5625 211.625 C38.625 213.6875 38.625 213.6875 35.25 214.375 C29.58183269 213.30000275 26.65879497 210.45106846 23.296875 205.8828125 C17.02278086 194.52758579 20.77984084 177.92815404 22.625 165.6875 C18.335 165.6875 14.045 165.6875 9.625 165.6875 C8.635 168.6575 8.635 168.6575 7.625 171.6875 C4.50714338 177.3054336 0.50501188 182.17451426 -3.859375 186.86328125 C-7.02288346 190.67090612 -7.5638856 193.20518433 -7.25 198.125 C-7.20134558 201.76921625 -7.27085442 203.47053004 -8.875 206.8125 C-12.24007492 209.33630619 -15.16549741 210.28050533 -19.375 209.6875 C-22.11566224 207.52995739 -23.81896502 205.79956995 -25.375 202.6875 C-26.19047251 193.36781418 -26.0397116 185.47974153 -20.375 177.6875 C-18.13764684 175.08787079 -15.83010412 172.58104301 -13.46875 170.09375 C-10.64290589 166.84613811 -9.05496444 163.63176433 -7.375 159.6875 C-8.096875 159.419375 -8.81875 159.15125 -9.5625 158.875 C-12.375 157.6875 -12.375 157.6875 -14.9375 155.9375 C-16.1440625 155.31875 -16.1440625 155.31875 -17.375 154.6875 C-20.0846035 155.7702532 -22.31578654 157.32617004 -24.6875 159 C-29.72893036 162.22117857 -35.32020873 163.81546548 -40.984375 165.57421875 C-44.84627338 166.79538516 -44.84627338 166.79538516 -48.375 168.6875 C-49.06439809 171.01421854 -49.72966922 173.34817594 -50.375 175.6875 C-52 178.125 -52 178.125 -54.375 179.6875 C-59.30832128 180.39226018 -61.21937903 180.45791398 -65.375 177.6875 C-67.41479447 174.62780829 -68.18217387 172.62633717 -67.91015625 168.9296875 C-66.05934446 161.1751914 -61.12808412 155.60723144 -54.58203125 151.34375 C-49.69288027 148.81878043 -44.56718066 146.92963627 -39.35644531 145.17114258 C-38.21900879 144.77125122 -38.21900879 144.77125122 -37.05859375 144.36328125 C-36.37337646 144.13552002 -35.68815918 143.90775879 -34.98217773 143.6730957 C-33.18937554 142.79508475 -33.18937554 142.79508475 -32.59619141 140.71655273 C-32.30626256 138.0569516 -33.03395201 136.76213271 -34.3125 134.4375 C-34.69277344 133.73109375 -35.07304688 133.0246875 -35.46484375 132.296875 C-35.76519531 131.76578125 -36.06554687 131.2346875 -36.375 130.6875 C-37.41398437 130.71070313 -38.45296875 130.73390625 -39.5234375 130.7578125 C-46.64987597 130.8673447 -53.22589263 130.75438059 -60.20703125 129.15234375 C-64.32342575 128.26972943 -68.43210388 127.50361213 -72.21484375 129.80859375 C-73.38922351 130.7157186 -74.55742612 131.63090714 -75.71875 132.5546875 C-77.375 133.6875 -77.375 133.6875 -80.5 134.3125 C-84.51105944 133.44053056 -85.93846721 131.95941547 -88.375 128.6875 C-89.5625 125.3125 -89.5625 125.3125 -89.375 121.6875 C-85.46949809 115.02759148 -79.6162401 111.79261322 -72.375 109.6875 C-65.60070549 109.10951753 -59.09308881 109.45616786 -52.51953125 111.17578125 C-48.84606724 112.05232731 -45.13008338 112.32987301 -41.375 112.6875 C-41.375 108.0675 -41.375 103.4475 -41.375 98.6875 C-42.365 98.48125 -43.355 98.275 -44.375 98.0625 C-51.64270396 95.97139001 -57.1691516 90.10788403 -62.61328125 85.10546875 C-65.93678099 82.43045677 -69.1557567 82.58044116 -73.25 82.4375 C-77.36602589 82.10861657 -79.10216678 81.86589095 -82.625 79.5625 C-84.8723203 75.8704738 -85.13433191 73.93975867 -84.375 69.6875 C-81.58844707 66.31430435 -79.40677603 63.9191357 -74.9765625 63.4140625 C-64.08095052 63.04229621 -56.02875567 65.96444115 -47.9375 73.3125 C-47.17566406 74.06789063 -46.41382813 74.82328125 -45.62890625 75.6015625 C-42.38275636 78.60579827 -39.87975513 80.6875 -35.375 80.6875 C-33.86383192 79.06761249 -33.86383192 79.06761249 -32.625 76.9375 C-32.17640625 76.24140625 -31.7278125 75.5453125 -31.265625 74.828125 C-30.17335307 72.20283983 -30.31889243 71.29730428 -31.375 68.6875 C-32.25222245 67.20510509 -33.17405715 65.74871781 -34.125 64.3125 C-37.38881724 59.06540625 -39.26353329 53.66814885 -41.1015625 47.7890625 C-42.43474426 44.54198792 -43.67974063 42.89509571 -46.375 40.6875 C-47.2 40.378125 -48.025 40.06875 -48.875 39.75 C-52.2415914 38.31919866 -53.54885744 36.84813135 -55.375 33.6875 C-55.375 29.80167724 -54.91067796 27.52315762 -52.8125 24.25 C-49.33574797 22.0213128 -46.32170163 21.99017749 -42.375 22.6875 C-34.30490186 25.28530302 -28.5804658 30.98073874 -24.6875 38.375 C-22.43762798 43.17718586 -20.84842774 48.13272157 -19.3671875 53.21875 C-18.51987809 55.99910025 -18.51987809 55.99910025 -15.375 57.6875 C-12.075 56.0375 -8.775 54.3875 -5.375 52.6875 C-5.39820313 51.63691406 -5.42140625 50.58632812 -5.4453125 49.50390625 C-5.54988505 42.64786849 -5.57881807 36.30945843 -3.83984375 29.6328125 C-2.99094203 26.08026579 -2.96079388 23.35618282 -3.375 19.6875 C-4.54177342 17.80521397 -5.86262423 16.14052275 -7.2421875 14.41015625 C-9.21696366 11.40713457 -9.01151605 9.12468666 -8.375 5.6875 C-5.83542396 2.07052807 -4.34295258 0.88467553 0 0 Z " fill="#F29C20" transform="translate(145.375,122.3125)"/>
<path d="M0 0 C1.17957275 0.00684814 2.35914551 0.01369629 3.57446289 0.02075195 C12.51764833 0.18512385 20.21588785 1.23452552 28.625 4.4375 C29.68460937 4.82292969 30.74421875 5.20835937 31.8359375 5.60546875 C54.22233748 14.3175564 70.99278825 30.8586047 80.96875 52.5390625 C91.02924675 75.58488367 89.8503647 101.83201944 81.06640625 125.08984375 C71.39043288 147.56222635 53.81366867 163.75254364 31.625 173.4375 C27.33816407 174.97636418 23.02867298 176.27892768 18.625 177.4375 C17.42617188 177.79972656 16.22734375 178.16195312 14.9921875 178.53515625 C9.5850425 179.87565881 4.16087772 179.6525706 -1.375 179.5625 C-2.43589844 179.55347656 -3.49679687 179.54445313 -4.58984375 179.53515625 C-7.18513638 179.51177524 -9.77994465 179.47900556 -12.375 179.4375 C-13.8371739 175.35091142 -14.80807803 171.45477459 -15.4453125 167.1640625 C-15.61933594 166.01035156 -15.79335938 164.85664063 -15.97265625 163.66796875 C-16.14667969 162.47816406 -16.32070313 161.28835938 -16.5 160.0625 C-16.77263672 158.24298828 -16.77263672 158.24298828 -17.05078125 156.38671875 C-17.4969664 153.40432325 -17.93820921 150.42128334 -18.375 147.4375 C-17.40820312 146.9528125 -16.44140625 146.468125 -15.4453125 145.96875 C4.93533308 135.55803918 17.51209193 122.00811939 24.6796875 100.078125 C29.43402401 81.76803564 27.00934669 63.3327406 18.0546875 46.73046875 C9.7365845 33.38968607 -1.12300414 24.64210555 -15.375 18.4375 C-16.49455078 17.92896484 -16.49455078 17.92896484 -17.63671875 17.41015625 C-25.37392613 14.35479538 -34.16584281 14.19022747 -42.375 13.4375 C-42.375 12.4475 -42.375 11.4575 -42.375 10.4375 C-39.98543703 9.31787165 -37.58956563 8.21724759 -35.1875 7.125 C-34.53330078 6.81626953 -33.87910156 6.50753906 -33.20507812 6.18945312 C-22.51121106 1.37467885 -11.64667846 -0.10475893 0 0 Z " fill="#464F5D" transform="translate(335.375,192.5625)"/>
<path d="M0 0 C19.36894409 -0.74178935 35.489216 6.47682102 49.578125 19.515625 C61.8959601 32.15133972 69.36209325 48.47574828 69.375 66.1875 C69.00449958 86.29499733 62.35022672 103.81063995 48.8125 118.75 C45.52210148 121.8251388 41.81755644 124.28399279 38.0625 126.75 C37.48927002 127.12737305 36.91604004 127.50474609 36.32543945 127.89355469 C33.23623 129.84389916 30.21271899 131.37481844 26.77514648 132.62597656 C26.06510971 132.8862262 25.35507294 133.14647583 24.6235199 133.41461182 C24.08775833 133.60778992 23.55199677 133.80096802 23 134 C19.71146963 117.28836409 16.65708592 100.54901689 13.80462646 83.75769043 C11.13558044 68.04645698 8.45673999 52.33773898 5.57421875 36.6640625 C5.29148354 35.1254808 5.29148354 35.1254808 5.0030365 33.55581665 C4.12293153 28.77789709 3.2347264 24.0016274 2.33666992 19.22705078 C2.02384844 17.54200654 1.71109976 15.85694879 1.3984375 14.171875 C1.25520554 13.42459137 1.11197357 12.67730774 0.96440125 11.90737915 C0.22237651 7.88422153 -0.14360833 4.09002941 0 0 Z " fill="#F8E9AF" transform="translate(294,206)"/>
<path d="M0 0 C5.28 0 10.56 0 16 0 C16.71766361 4.0009746 17.43154986 8.00235823 18.13623047 12.00561523 C18.37659457 13.36472099 18.61906945 14.72345533 18.86376953 16.08178711 C19.21693847 18.04439734 19.56166482 20.00852075 19.90625 21.97265625 C20.11572266 23.15093994 20.32519531 24.32922363 20.54101562 25.54321289 C21.00939198 29.07073463 21.07937637 32.44592304 21 36 C21.67546875 36.08636719 22.3509375 36.17273438 23.046875 36.26171875 C30.28153956 37.40128297 30.28153956 37.40128297 33.625 40.1875 C35.38360431 43.78464519 35.57561264 46.04266312 35 50 C32.8912117 53.20535822 31.455268 53.87742785 27.75 54.875 C23.36017342 55.02132755 20.19290537 54.25051564 16 53 C15.773125 53.53625 15.54625 54.0725 15.3125 54.625 C11.41743005 61.67322181 6.29573636 65.73528606 -1 69 C-3.69377562 69.73138441 -6.33219403 70.37649827 -9.05859375 70.9453125 C-9.83788239 71.11291077 -10.61717102 71.28050903 -11.42007446 71.45318604 C-19.98614506 73.26352422 -28.60116125 74.80353895 -37.22802734 76.29248047 C-39.92258921 76.75822562 -42.61560989 77.23225524 -45.30859375 77.70703125 C-47.03637432 78.00829472 -48.76423587 78.3090942 -50.4921875 78.609375 C-51.29002655 78.74994324 -52.0878656 78.89051147 -52.90988159 79.03533936 C-56.34486497 79.6240126 -59.50306524 80 -63 80 C-63.28875 80.61875 -63.5775 81.2375 -63.875 81.875 C-65 84 -65 84 -67 86 C-77.20517414 87.45518224 -89.10708811 85.0798721 -98 80 C-100.19599696 78.32398541 -100.87921189 77.59088239 -101.43359375 74.87890625 C-101.43987697 71.15295859 -101.41151974 68.70301288 -99.5 65.4375 C-96.02240253 63.43788146 -92.87144404 63.4635951 -89 64 C-87.31422289 64.61674772 -85.64551962 65.28272222 -84 66 C-71.25283078 68.71216366 -58.26414533 66.61922781 -45.62304688 64.39379883 C-43.00741237 63.93878944 -40.38755747 63.52048525 -37.765625 63.10351562 C-25.78274571 61.09218905 -11.75803998 58.2630745 -4.10546875 47.83203125 C0.55145074 40.11438023 2.1937873 34.16812309 2.1875 25.1875 C2.1884668 23.78238159 2.1884668 23.78238159 2.18945312 22.34887695 C2.13182713 14.70753918 1.32549232 7.53873758 0 0 Z " fill="#F9C177" transform="translate(323,372)"/>
<path d="M0 0 C5.78591511 -0.10477512 11.29309366 0.00749455 17 1 C16.97115723 1.98444092 16.94231445 2.96888184 16.91259766 3.9831543 C16.91744225 8.16698115 17.60762071 12.1721401 18.3984375 16.26953125 C18.54889023 17.0788913 18.69934296 17.88825134 18.85435486 18.72213745 C19.18305331 20.48884619 19.51438983 22.25506568 19.84805298 24.02084351 C20.7688801 28.8991954 21.6675216 33.78162736 22.56640625 38.6640625 C22.75992172 39.71359604 22.95343719 40.76312958 23.15281677 41.84446716 C25.6481252 55.43976826 27.97700753 69.06401132 30.3125 82.6875 C30.52469177 83.92480865 30.73688354 85.16211731 30.95550537 86.43692017 C32.61585819 96.11968403 32.61585819 96.11968403 33.38226318 100.59376526 C34.89255107 109.40102855 36.43269873 118.20271382 38 127 C36.28469082 127.86538121 34.56937102 128.73074139 32.85397339 129.59594727 C31.52724184 130.26547174 30.20108689 130.93613906 28.87524414 131.60742188 C24.11111111 134 24.11111111 134 23 134 C19.71146963 117.28836409 16.65708592 100.54901689 13.80462646 83.75769043 C11.13558044 68.04645698 8.45673999 52.33773898 5.57421875 36.6640625 C5.29148354 35.1254808 5.29148354 35.1254808 5.0030365 33.55581665 C4.12293153 28.77789709 3.2347264 24.0016274 2.33666992 19.22705078 C2.02384844 17.54200654 1.71109976 15.85694879 1.3984375 14.171875 C1.25520554 13.42459137 1.11197357 12.67730774 0.96440125 11.90737915 C0.22237651 7.88422153 -0.14360833 4.09002941 0 0 Z " fill="#F9C176" transform="translate(294,206)"/>
<path d="M0 0 C3.5392808 -0.19772518 5.76767431 0.08627955 8.91015625 1.7578125 C11.64067766 4.98479235 12.0464869 6.98696519 11.97265625 11.1953125 C9.9376088 14.46592447 8.1811056 16.05634626 4.97265625 18.1953125 C3.04321289 18.63427734 3.04321289 18.63427734 0.8828125 18.90625 C0.09841797 19.01710938 -0.68597656 19.12796875 -1.49414062 19.2421875 C-3.13643357 19.46029439 -4.77968879 19.67127821 -6.42382812 19.875 C-10.17659492 20.41682687 -12.49099232 20.79243101 -15.5703125 23.10546875 C-18.1798897 26.848428 -17.31741459 30.52617606 -16.56640625 34.84765625 C-16.38851562 35.78738281 -16.210625 36.72710937 -16.02734375 37.6953125 C-13.97063177 48.5750208 -13.97063177 48.5750208 -16.90234375 53.0703125 C-19.40188662 55.56985537 -20.34910333 56.10488044 -23.83984375 56.5703125 C-27.02734375 56.1953125 -27.02734375 56.1953125 -29.77734375 54.1953125 C-32.44180056 50.64270342 -33.25872443 47.46376153 -34.02734375 43.1953125 C-34.21167969 42.39609375 -34.39601563 41.596875 -34.5859375 40.7734375 C-36.97469136 30.16407553 -36.41539555 22.71079673 -31.40234375 13.0703125 C-24.53032178 4.75154907 -15.56781695 2.41472276 -5.33984375 0.5078125 C-3.55976898 0.33988092 -1.77973852 0.17145843 0 0 Z " fill="#815E55" transform="translate(63.02734375,52.8046875)"/>
<path d="M0 0 C5.84213875 4.20741185 6.40131643 9.51325408 7.625 16.1875 C8.00196274 18.18311018 8.38948935 20.17676254 8.7890625 22.16796875 C8.95100098 23.04735107 9.11293945 23.9267334 9.27978516 24.83276367 C9.87280637 27.35912596 9.87280637 27.35912596 13 29 C17.01252745 29.3210022 20.49802053 28.94891106 24.375 28 C30.21739733 26.62414534 35.53146033 25.71430226 41 28.5625 C43.68785653 31.83832514 44.14591885 33.76835334 44 38 C41.36808596 41.99809842 40.07908723 43.61269781 35.5390625 45.2421875 C10.64044049 49.26771321 10.64044049 49.26771321 0.05859375 42.81640625 C-7.42445955 37.0283096 -9.8039493 28.26987608 -11.3125 19.25 C-11.56633743 17.16952849 -11.79793963 15.0861368 -12 13 C-12.09539062 12.20078125 -12.19078125 11.4015625 -12.2890625 10.578125 C-12.5569977 6.82703221 -12.08365609 5.12168158 -9.9375 2 C-6.22192774 -0.52975133 -4.4117517 -0.7878128 0 0 Z " fill="#815D55" transform="translate(96,393)"/>
<path d="M0 0 C6.54788179 5.86523029 9.03486472 13.03570924 10.6875 21.5 C10.93886719 22.7478125 11.19023437 23.995625 11.44921875 25.28125 C12.84488957 34.70450265 12.84488957 34.70450265 10.125 38.875 C7.37379583 41.62620417 6.54761821 41.94929461 2.625 42.3125 C-1 42 -1 42 -3.10546875 40.6015625 C-6.3701916 36.11845855 -6.54509356 30.74362187 -7.33398438 25.35351562 C-8.06367446 21.02359255 -8.66415194 18.45325376 -11.32421875 14.86328125 C-14.34016122 12.76312861 -15.32332561 12.50090386 -18.875 13.125 C-19.74640625 13.26035156 -20.6178125 13.39570312 -21.515625 13.53515625 C-22.33546875 13.68855469 -23.1553125 13.84195313 -24 14 C-37.42455243 16.0831202 -37.42455243 16.0831202 -42 12.9375 C-44.52975133 9.22192774 -44.7878128 7.4117517 -44 3 C-34.6729309 -8.35247279 -11.36172413 -8.44682487 0 0 Z " fill="#805D54" transform="translate(232,32)"/>
<path d="M0 0 C4.55154028 3.56178226 5.97827218 6.942934 6.8125 12.5 C6.92795166 13.20125 7.04340332 13.9025 7.16235352 14.625 C8.62115442 24.16173543 9.99590082 33.79713894 4 42 C-4.87161441 52.27239564 -15.65180535 53.727139 -28.4453125 55.30078125 C-32.18652915 55.54972152 -33.88681437 55.07781512 -37 52.9375 C-39.52975133 49.22192774 -39.7878128 47.4117517 -39 43 C-34.94934922 37.62086617 -30.72959738 36.82344236 -24.4375 35.75 C-22.74866564 35.43246329 -21.05986242 35.11476087 -19.37109375 34.796875 C-18.62786865 34.66635742 -17.88464355 34.53583984 -17.11889648 34.40136719 C-15.05447827 34.01031942 -13.03273238 33.52995313 -11 33 C-10.97292861 30.75006641 -10.95357171 28.50003905 -10.9375 26.25 C-10.92589844 24.99703125 -10.91429687 23.7440625 -10.90234375 22.453125 C-10.98154491 19.65257193 -11.27779562 17.64808273 -12 15 C-12.85012934 5.52314839 -12.85012934 5.52314839 -10.5 1.3125 C-7.05634659 -0.49541804 -3.72251956 -1.11606266 0 0 Z " fill="#805D54" transform="translate(292,359)"/>
<path d="M0 0 C0.67506592 0.15645996 1.35013184 0.31291992 2.0456543 0.47412109 C6.17534297 1.56541574 8.77910453 2.82109329 11.375 6.25 C11.96863772 10.33125936 11.78759601 12.49082335 9.8125 16.125 C6.70941113 18.83025696 4.37502722 19.40742504 0.375 19.25 C-2.66029498 18.82414018 -5.66482783 18.29377837 -8.6796875 17.7421875 C-12.49192447 17.10512933 -15.77123791 16.89965799 -19.625 17.25 C-22.4994742 19.40341101 -23.10045588 21.29893769 -23.65234375 24.77734375 C-23.80509766 25.65197266 -23.95785156 26.52660156 -24.11523438 27.42773438 C-24.41269506 29.26315775 -24.70698218 31.09909835 -24.99804688 32.93554688 C-26.1793043 39.65240392 -26.1793043 39.65240392 -28.5390625 42.81640625 C-31.61253682 44.9287004 -33.91744944 45.25 -37.625 45.25 C-40.42689446 43.48358828 -42.14024911 42.21950178 -43.625 39.25 C-44.94326462 29.17932273 -42.17230945 16.87832576 -37.0625 8.125 C-27.6021368 -4.16639458 -13.68756352 -3.21122278 0 0 Z " fill="#815E55" transform="translate(316.625,77.75)"/>
<path d="M0 0 C2.875 1.9375 2.875 1.9375 5 5 C6.26300385 14.78827982 4.1001923 28.92186656 -2 37 C-7.24099301 42.64150558 -12.81254674 46.79997627 -20.76171875 47.1796875 C-41.37417368 45.57991488 -41.37417368 45.57991488 -48.25 40.6875 C-50.39760082 37.38939873 -50.72431161 35.86299527 -50 32 C-48.20006226 29.30009338 -46.916227 27.4581135 -44 26 C-39.97975153 25.75386234 -36.45033559 26.05158336 -32.5625 27 C-28.17618373 28.03295503 -24.50667292 28.45830572 -20 28 C-15.94778876 25.18074357 -15.30610128 22.08678144 -14.421875 17.49414062 C-14.28265625 16.69169922 -14.1434375 15.88925781 -14 15.0625 C-13.00646282 9.36346032 -12.25717176 5.24885698 -8 1 C-5.11138291 -0.44430855 -3.20352299 -0.37688506 0 0 Z " fill="#805D54" transform="translate(422,439)"/>
<path d="M0 0 C6.11695762 2.68955724 10.75051207 7.57997565 13.7421875 13.5234375 C16.35783111 21.96258954 14.85429761 31.44615369 12.8203125 39.8828125 C12.66353027 40.55352783 12.50674805 41.22424316 12.34521484 41.9152832 C11.25762244 46.00861397 10.04327376 48.69655167 6.5703125 51.1953125 C4.31640625 51.5078125 4.31640625 51.5078125 2.0078125 51.1953125 C1.24339844 51.1128125 0.47898437 51.0303125 -0.30859375 50.9453125 C-3.14844644 49.94116569 -3.98851291 48.81933793 -5.4296875 46.1953125 C-6.20538742 40.89886681 -5.66189137 35.61526016 -4.3671875 30.4453125 C-3.36184369 26.4094719 -3.2883665 23.27145892 -4.4296875 19.1953125 C-8.2976983 15.12995421 -13.77950173 15.17745249 -19.0546875 14.5546875 C-24.59691027 13.75175063 -27.55379817 12.30738883 -31.4296875 8.1953125 C-32.48906106 5.1367985 -31.95813548 3.52453475 -31.4296875 0.1953125 C-24.5149368 -8.7938634 -9.26171484 -3.06738466 0 0 Z " fill="#805D54" transform="translate(471.4296875,107.8046875)"/>
<path d="M0 0 C2.49692655 3.74538982 2.97942994 7.37308271 3.734375 11.72265625 C3.89307068 12.60375061 4.05176636 13.48484497 4.215271 14.39263916 C4.73378314 17.28140237 5.24213724 20.17184713 5.75 23.0625 C6.10429326 25.05307193 6.45911473 27.04354992 6.81445312 29.03393555 C7.5343009 33.0721075 8.24998874 37.11098697 8.96289062 41.15039062 C9.76785019 45.7038521 10.58701591 50.25451873 11.4163208 54.80360413 C11.98332147 57.91439446 12.54542562 61.02605703 13.10656738 64.13790894 C13.36672141 65.5758391 13.6286548 67.01344859 13.89245605 68.45071411 C14.25702467 70.44134895 14.61307687 72.4335378 14.96875 74.42578125 C15.16919922 75.53348877 15.36964844 76.64119629 15.57617188 77.7824707 C16.02928159 81.22229384 16.07230811 84.53441466 16 88 C14.04414675 89.00484204 12.08523763 90.00373805 10.125 91 C9.03445313 91.556875 7.94390625 92.11375 6.8203125 92.6875 C4 94 4 94 2 94 C-0.83013183 80.45131869 -3.18176566 66.82085597 -5.5625 53.1875 C-6.16288961 49.75321342 -6.76382995 46.31902661 -7.36619568 42.88508606 C-7.73804987 40.7649243 -8.10878361 38.64456559 -8.47816467 36.52397156 C-9.43761015 31.05018918 -10.4667239 25.60353384 -11.63487244 20.17012024 C-12 18 -12 18 -12 14 C-9.03 13.34 -6.06 12.68 -3 12 C-2.01 8.04 -1.02 4.08 0 0 Z " fill="#F9C176" transform="translate(291,109)"/>
<path d="M0 0 C0.74378906 0.309375 1.48757812 0.61875 2.25390625 0.9375 C6.39473495 2.5396414 10.74095499 3.04989758 15.1171875 3.6796875 C19.77961634 4.45382663 22.67574985 5.61302815 26 9 C27.125 12.375 27.125 12.375 27 16 C24.80898308 20.30378324 24.80898308 20.30378324 22 22 C12.1841235 24.04009699 -0.45941576 20.878613 -9 16 C-11.19599696 14.32398541 -11.87921189 13.59088239 -12.43359375 10.87890625 C-12.43987697 7.15295859 -12.41151974 4.70301288 -10.5 1.4375 C-7.05070025 -0.54584736 -3.84193591 -0.6152821 0 0 Z " fill="#5B484F" transform="translate(234,436)"/>
<path d="M0 0 C6.5329916 30.91008524 6.5329916 30.91008524 1 40 C-1.60047855 42.22898161 -3.03326216 41.99940603 -6.5 41.9375 C-10 41 -10 41 -12.4375 39.0625 C-16.7004311 30.70715504 -13.31815435 20.35975708 -10.66796875 11.83105469 C-8.93263108 7.07409836 -5.78647685 0 0 0 Z " fill="#5A484E" transform="translate(287,81)"/>
<path d="M0 0 C0.85889777 4.7681009 1.71326675 9.53698288 2.56347656 14.30664062 C2.8532524 15.9286074 3.14425755 17.55035506 3.43652344 19.171875 C3.85676429 21.50464053 4.27255636 23.83816216 4.6875 26.171875 C4.81874268 26.89493835 4.94998535 27.61800171 5.08520508 28.36297607 C5.6666388 31.6563048 6 34.64036909 6 38 C1.05 38 -3.9 38 -9 38 C-10.44904791 33.65285627 -11.41149522 30.16259886 -12.0703125 25.7265625 C-12.24433594 24.57285156 -12.41835938 23.41914063 -12.59765625 22.23046875 C-12.77167969 21.04066406 -12.94570313 19.85085938 -13.125 18.625 C-13.30675781 17.41199219 -13.48851562 16.19898438 -13.67578125 14.94921875 C-14.1219664 11.96682325 -14.56320921 8.98378334 -15 6 C-13.25595212 4.98965502 -11.50450439 3.99207578 -9.75 3 C-8.77546875 2.443125 -7.8009375 1.88625 -6.796875 1.3125 C-4 0 -4 0 0 0 Z " fill="#2E3139" transform="translate(332,334)"/>
<path d="M0 0 C0.14622803 0.83772949 0.29245605 1.67545898 0.44311523 2.53857422 C0.98667643 5.64383733 1.53303318 8.74859169 2.08129883 11.85302734 C2.31810066 13.19723073 2.55378425 14.54163161 2.78833008 15.88623047 C3.12548086 17.81789775 3.46697611 19.74880518 3.80859375 21.6796875 C4.01282959 22.84226074 4.21706543 24.00483398 4.42749023 25.20263672 C4.86189856 27.93945989 4.86189856 27.93945989 6 30 C5.24074219 30.4021875 4.48148437 30.804375 3.69921875 31.21875 C-1.48499889 34.63988349 -4.2514564 40.18320561 -5.82421875 46.1015625 C-6.30347574 48.73237747 -6.70696866 51.34250889 -7 54 C-7.33 54 -7.66 54 -8 54 C-8.07516846 53.36199463 -8.15033691 52.72398926 -8.2277832 52.06665039 C-9.64239974 40.15842336 -11.13775259 28.32929063 -13.44921875 16.55859375 C-14.01012411 12.93458821 -14.28314628 9.6584297 -14 6 C-10.14681418 2.60552678 -5.25606894 0 0 0 Z " fill="#F8C077" transform="translate(282,50)"/>
<path d="M0 0 C0.33 0 0.66 0 1 0 C1.1546875 1.6396875 1.1546875 1.6396875 1.3125 3.3125 C2.01754595 7.09411009 2.17288366 7.73830693 5 10 C7.03077684 10.98628417 7.03077684 10.98628417 9.1875 11.6875 C9.90292969 11.93886719 10.61835938 12.19023437 11.35546875 12.44921875 C11.89816406 12.63097656 12.44085938 12.81273437 13 13 C13 13.66 13 14.32 13 15 C8.59098946 15.86403125 4.18020137 16.7181391 -0.23242188 17.56347656 C-1.73033189 17.85183392 -3.22774214 18.14280103 -4.72460938 18.43652344 C-6.88802962 18.8605538 -9.05312998 19.27487019 -11.21875 19.6875 C-11.87742065 19.81874268 -12.53609131 19.94998535 -13.21472168 20.08520508 C-17.92159248 20.96857651 -22.236256 21.32485841 -27 21 C-30.16968441 17.50521975 -31.2012189 14.55227674 -32 10 C-10.5989937 5.4308534 -10.5989937 5.4308534 0 5 C0 3.35 0 1.7 0 0 Z " fill="#F8C177" transform="translate(221,442)"/>
<path d="M0 0 C2.518541 3.77781149 2.15318343 5.57146995 1.52734375 9.91015625 C1 12 1 12 -0.5625 13.9375 C-6.54153023 16.54374395 -12.53475184 17.8479014 -19 17 C-22.29420787 14.11756811 -23.76884408 12.25851556 -24.5625 7.9375 C-23.8420171 4.17497821 -22.81636298 2.59971967 -20 0 C-13.79380039 -2.55549396 -5.93019926 -3.74538901 0 0 Z " fill="#F0C51D" transform="translate(260,350)"/>
<path d="M0 0 C4.63235294 2.26470588 4.63235294 2.26470588 6 5 C6.36143795 11.86732098 6.47431201 19.18203354 1.75 24.5625 C-1.56722446 26.29650369 -3.30698605 26.61550232 -7 26 C-9.69990662 24.20006226 -11.5418865 22.916227 -13 20 C-13.49318257 14.08180918 -12.53341942 8.40714891 -10 3 C-6.66525862 -0.07093831 -4.52360449 -0.55391075 0 0 Z " fill="#F0C51E" transform="translate(365,428)"/>
<path d="M0 0 C2.64067441 3.21832193 3 5.29681078 3 9.4375 C1.80509832 12.26753031 0.89508296 13.87143155 -1.7109375 15.51953125 C-4.63521203 16.6922352 -7.30232413 17.01529258 -10.4375 17.3125 C-11.54996094 17.43367188 -12.66242188 17.55484375 -13.80859375 17.6796875 C-17.79875884 17.37688427 -19.26044996 16.30112386 -22 13.4375 C-23.15170393 10.76788213 -23.28099124 8.32196105 -23 5.4375 C-21.08736369 1.77161374 -19.62819145 0.69616707 -15.8125 -0.875 C-10.1079067 -1.90369715 -5.27213657 -2.74590446 0 0 Z " fill="#F0C51E" transform="translate(97,100.5625)"/>
<path d="M0 0 C2.69990662 1.79993774 4.5418865 3.083773 6 6 C6.49832701 12.10450582 5.59525217 18.82317871 1.60546875 23.70703125 C-1.12360586 25.90489912 -3.57258138 25.94090658 -7 26 C-9.80189446 24.23358828 -11.51524911 22.96950178 -13 20 C-13.48813186 14.42621527 -13.14679113 9.21363561 -11 4 C-7.5637049 0.27734698 -5.03181443 -0.83863574 0 0 Z " fill="#F0C51D" transform="translate(415,163)"/>
<path d="M0 0 C2.69990662 1.79993774 4.5418865 3.083773 6 6 C5.95294758 13.19901983 5.22758887 19.42659803 0.25 24.9375 C-3.19949791 26.56642957 -5.38748821 26.03214623 -9 25 C-12.35954965 22.15730414 -12.94286396 20.58088306 -13.375 16.1875 C-13.05381302 10.70659959 -12.54761796 5.71957551 -8.75 1.5 C-5.43054475 -0.31061196 -3.72764226 -0.62127371 0 0 Z " fill="#F0C51E" transform="translate(373,388)"/>
<path d="M0 0 C3.65035672 1.03979858 5.03057012 3.43674258 6.93359375 6.55078125 C7.74609375 9.42578125 7.74609375 9.42578125 7.93359375 12.55078125 C8.00707031 13.20433594 8.08054688 13.85789062 8.15625 14.53125 C8.43762771 18.37674542 8.08163683 20.32871662 5.93359375 23.55078125 C1.75830557 26.3343067 -0.11262508 26.33709572 -5.06640625 25.55078125 C-9.40597454 21.78220879 -10.56571536 17.05561747 -11.359375 11.5 C-11.62482449 7.69044117 -11.18946112 5.73536356 -9.06640625 2.55078125 C-5.75251642 0.34152136 -3.91453643 -0.25899579 0 0 Z " fill="#F0C41D" transform="translate(226.06640625,327.44921875)"/>
<path d="M0 0 C2.9870663 1.41492614 3.77734099 2.55468197 5.25 5.5 C6.59124887 11.75916138 7.52509082 17.64304146 3.9375 23.1875 C0.26603086 25.45287458 -1.75368609 25.61764566 -6 25 C-8.70402852 23.4519688 -9.8155694 22.41813146 -11.08203125 19.546875 C-13.69572426 9.53936592 -13.69572426 9.53936592 -12 4 C-8.97193725 -0.7237779 -5.1766205 -0.86277008 0 0 Z " fill="#F0C51D" transform="translate(235,369)"/>
<path d="M0 0 C3.17968446 1.3436918 5.41438976 2.82877952 7 6 C7.48153012 10.2535161 7.44716755 12.3220363 5.0625 15.9375 C0.8910919 18.74681566 -2.11859475 18.62796809 -7 18 C-10.72112645 17.26797512 -13.29047028 16.47301981 -16.4375 14.375 C-18.28353069 11.56903335 -18.64773419 9.32680722 -18.421875 5.9765625 C-18 4 -18 4 -16.3125 0.9375 C-11.0038228 -2.16757534 -5.87507737 -1.23841029 0 0 Z " fill="#F0C51D" transform="translate(441,151)"/>
<path d="M0 0 C2.59541595 0.95504232 4.18825376 1.69760925 6.3125 3.5 C7.70607855 6.84458851 7.75328088 9.16412371 7.25 12.75 C5.375 15.6875 5.375 15.6875 2.25 17.75 C-3.99082728 18.85690349 -9.29938993 17.86463432 -14.75 14.75 C-17.2408162 12.41988162 -17.68376919 11.19469258 -18.1875 7.8125 C-17.64919863 4.04439042 -16.37436976 2.45155711 -13.75 -0.25 C-9.33076414 -2.45961793 -4.5454105 -1.36436465 0 0 Z " fill="#F0C51D" transform="translate(390.75,416.25)"/>
<path d="M0 0 C3.55274528 0.89780567 6.21694418 2.31482616 9 4.75 C10.52024944 8.17056125 9.95401173 10.4383562 9 14 C7.5625 16.4375 7.5625 16.4375 5 18 C-0.80822699 18.79939013 -6.5838497 18.27478313 -12 16 C-14.84483129 13.37400188 -15.84921275 11.80419865 -16.5625 8 C-16 5 -16 5 -14.1875 2.125 C-9.51429053 -0.99047298 -5.46051284 -0.71972376 0 0 Z " fill="#F0C41C" transform="translate(398,143)"/>
<path d="M0 0 C5.40414214 5.11971361 5.1124428 10.59876892 5.328125 17.59765625 C4.92021706 20.58412513 4.12154271 21.87374275 2 24 C-1.00774409 25.18282071 -3.80013314 25.43226272 -7 25 C-9.85647619 23.03533445 -11.52577625 20.45938536 -12.60546875 17.13671875 C-13.41068806 12.77577851 -13.50182404 8.40266961 -13 4 C-9.29276974 -1.19012236 -6.03686295 -1.45717381 0 0 Z " fill="#F0C51D" transform="translate(115,113)"/>
<path d="M0 0 C2.22031843 2.864927 2.67327446 4.91222094 2.41015625 8.53515625 C1.55220327 12.10168804 -0.09961181 13.4441184 -3.0625 15.5 C-8.45496944 17.51587643 -13.44030393 17.96177098 -19.0625 16.5 C-20.9375 15.4375 -20.9375 15.4375 -22.0625 13.5 C-23.70161846 6.72497704 -23.70161846 6.72497704 -21.5625 2.625 C-15.77184409 -2.29705753 -6.80198863 -3.33158627 0 0 Z " fill="#F0C41C" transform="translate(138.0625,93.5)"/>
<path d="M0 0 C3.57291464 1.98495258 4.75429347 3.40328413 6.3125 7.1875 C7.25853397 12.4336884 7.96809504 17.41841324 6.0625 22.5 C2.66355722 24.97195839 -0.85634745 25.40052881 -5 25 C-8.89312871 22.51502423 -10.23829095 19.96381101 -11.375 15.625 C-12.27071173 10.44881973 -12.37846537 6.06769805 -9.375 1.5625 C-6.02385272 -0.64220216 -3.93750984 -0.55263296 0 0 Z " fill="#F0C41D" transform="translate(106,72)"/>
<path d="M0 0 C3.87837839 0.94102768 6.98001152 2.10751008 10 4.75 C11.46163259 8.03867332 11.44415532 10.44675747 11 14 C8.95739965 17.10475253 7.48278331 17.85220919 3.9375 18.9375 C-1.40624095 19.02232128 -6.06905826 18.07660799 -11 16 C-13.59034278 13.26163763 -13.88777337 11.67335979 -14.5 8 C-14 5 -14 5 -12.0625 2.125 C-7.89532997 -0.76650573 -4.92232175 -0.75350017 0 0 Z " fill="#F0C41C" transform="translate(347,408)"/>
<path d="M0 0 C2.2327846 3.48314398 2.34928941 6.412451 1.5625 10.4375 C-0.55204386 13.9310942 -2.9435387 14.73913251 -6.75 15.6875 C-14.44379291 17.05191648 -14.44379291 17.05191648 -18.4375 16.4375 C-21.66091676 13.55699992 -23.19447586 11.62831827 -24.0625 7.375 C-23.18615239 3.25616622 -21.82557087 1.92669492 -18.4375 -0.5625 C-12.28600243 -2.88512151 -5.75433901 -3.68867885 0 0 Z " fill="#F0C51D" transform="translate(218.4375,357.5625)"/>
<path d="M0 0 C1.16015625 0.11021484 1.16015625 0.11021484 2.34375 0.22265625 C5.22042329 1.17633598 6.0413234 2.3091299 7.5 4.9375 C8.62165242 11.40349628 7.3070419 17.11548717 4.5 22.9375 C1.28563471 25.08041019 -0.67426609 25.23775791 -4.46484375 25.3984375 C-7.51663193 24.70724555 -8.64575393 23.42480365 -10.5 20.9375 C-10.99609375 17.87890625 -10.99609375 17.87890625 -10.9375 14.5 C-10.93621094 13.38753906 -10.93492187 12.27507812 -10.93359375 11.12890625 C-10.35610422 6.87837519 -8.67004832 4.44881242 -6.09375 1.12109375 C-3.91539528 -0.49665497 -2.66238648 -0.31504907 0 0 Z " fill="#F0C41C" transform="translate(420.5,123.0625)"/>
<path d="M0 0 C0.33 2.97 0.66 5.94 1 9 C-4.28 8.67 -9.56 8.34 -15 8 C-15 7.01 -15 6.02 -15 5 C-13.25447527 4.15733289 -11.5033792 3.32619962 -9.75 2.5 C-8.77546875 2.0359375 -7.8009375 1.571875 -6.796875 1.09375 C-4 0 -4 0 0 0 Z " fill="#35363B" transform="translate(308,198)"/>
<path d="M0 0 C-1.15173355 2.46800047 -2.04783565 4.04783565 -4 6 C-9.88727255 6.65414139 -15.51994831 6.36975208 -21 4 C-21 3.67 -21 3.34 -21 3 C-18.25071558 2.49576443 -15.50068857 1.99646574 -12.75 1.5 C-11.97269531 1.35691406 -11.19539062 1.21382813 -10.39453125 1.06640625 C-9.64042969 0.93105469 -8.88632813 0.79570312 -8.109375 0.65625 C-7.07248535 0.46772461 -7.07248535 0.46772461 -6.01464844 0.27539062 C-4 0 -4 0 0 0 Z " fill="#836258" transform="translate(260,452)"/>
</svg>
